HIERARCHY
ROOT Hips
{
	OFFSET 0.00000 0.00000 0.00000
	CHANNELS 6 Xposition Yposition Zposition Zrotation Yrotation Xrotation 
	JOINT LHipJoint
	{
		OFFSET 0 0 0
		CHANNELS 3 Zrotation Yrotation Xrotation
		JOINT LeftUpLeg
		{
			OFFSET 1.37590 -1.78394 0.89329
			CHANNELS 3 Zrotation Yrotation Xrotation
			JOINT LeftLeg
			{
				OFFSET 2.47928 -6.81178 0.00000
				CHANNELS 3 Zrotation Yrotation Xrotation
				JOINT LeftFoot
				{
					OFFSET 2.63345 -7.23535 0.00000
					CHANNELS 3 Zrotation Yrotation Xrotation
					JOINT LeftToeBase
					{
						OFFSET 0.23938 -0.65768 2.27012
						CHANNELS 3 Zrotation Yrotation Xrotation
						End Site
						{
							OFFSET 0.00000 -0.00000 1.18363
						}
					}
				}
			}
		}
	}
	JOINT RHipJoint
	{
		OFFSET 0 0 0
		CHANNELS 3 Zrotation Yrotation Xrotation
		JOINT RightUpLeg
		{
			OFFSET -1.33617 -1.78394 0.89329
			CHANNELS 3 Zrotation Yrotation Xrotation
			JOINT RightLeg
			{
				OFFSET -2.56922 -7.05888 0.00000
				CHANNELS 3 Zrotation Yrotation Xrotation
				JOINT RightFoot
				{
					OFFSET -2.56568 -7.04915 0.00000
					CHANNELS 3 Zrotation Yrotation Xrotation
					JOINT RightToeBase
					{
						OFFSET -0.27533 -0.75646 2.18105
						CHANNELS 3 Zrotation Yrotation Xrotation
						End Site
						{
							OFFSET -0.00000 -0.00000 1.15233
						}
					}
				}
			}
		}
	}
	JOINT LowerBack
	{
		OFFSET 0 0 0
		CHANNELS 3 Zrotation Yrotation Xrotation
		JOINT Spine
		{
			OFFSET 0.06190 2.15152 -0.00935
			CHANNELS 3 Zrotation Yrotation Xrotation
			JOINT Spine1
			{
				OFFSET 0.06334 2.15332 0.00872
				CHANNELS 3 Zrotation Yrotation Xrotation
				JOINT Neck
				{
					OFFSET 0 0 0
					CHANNELS 3 Zrotation Yrotation Xrotation
					JOINT Neck1
					{
						OFFSET -0.04202 1.66908 0.23524
						CHANNELS 3 Zrotation Yrotation Xrotation
						JOINT Head
						{
							OFFSET 0.07510 1.69357 -0.24440
							CHANNELS 3 Zrotation Yrotation Xrotation
							End Site
							{
								OFFSET 0.02556 1.71719 -0.11000
							}
						}
					}
				}
				JOINT LeftShoulder
				{
					OFFSET 0 0 0
					CHANNELS 3 Zrotation Yrotation Xrotation
					JOINT LeftArm
					{
						OFFSET 3.67168 1.26306 -0.41342
						CHANNELS 3 Zrotation Yrotation Xrotation
						JOINT LeftForeArm
						{
							OFFSET 4.68510 -0.00000 -0.00000
							CHANNELS 3 Zrotation Yrotation Xrotation
							JOINT LeftHand
							{
								OFFSET 3.39626 -0.00000 -0.00000
								CHANNELS 3 Zrotation Yrotation Xrotation
								JOINT LeftFingerBase
								{
									OFFSET 0 0 0
									CHANNELS 3 Zrotation Yrotation Xrotation
									JOINT LeftHandIndex1
									{
										OFFSET 0.48608 -0.00000 -0.00000
										CHANNELS 3 Zrotation Yrotation Xrotation
										End Site
										{
											OFFSET 0.39189 -0.00000 -0.00000
										}
									}
								}
								JOINT LThumb
								{
									OFFSET 0 0 0
									CHANNELS 3 Zrotation Yrotation Xrotation
									End Site
									{
										OFFSET 0.39787 -0.00000 0.39787
									}
								}
							}
						}
					}
				}
				JOINT RightShoulder
				{
					OFFSET 0 0 0
					CHANNELS 3 Zrotation Yrotation Xrotation
					JOINT RightArm
					{
						OFFSET -3.04136 1.42992 -0.76390
						CHANNELS 3 Zrotation Yrotation Xrotation
						JOINT RightForeArm
						{
							OFFSET -5.55576 -0.00000 -0.00000
							CHANNELS 3 Zrotation Yrotation Xrotation
							JOINT RightHand
							{
								OFFSET -3.32774 -0.00000 -0.00000
								CHANNELS 3 Zrotation Yrotation Xrotation
								JOINT RightFingerBase
								{
									OFFSET 0 0 0
									CHANNELS 3 Zrotation Yrotation Xrotation
									JOINT RightHandIndex1
									{
										OFFSET -0.50763 -0.00000 -0.00000
										CHANNELS 3 Zrotation Yrotation Xrotation
										End Site
										{
											OFFSET -0.40926 -0.00000 -0.00000
										}
									}
								}
								JOINT RThumb
								{
									OFFSET 0 0 0
									CHANNELS 3 Zrotation Yrotation Xrotation
									End Site
									{
										OFFSET -0.41551 -0.00000 0.41551
									}
								}
							}
						}
					}
				}
			}
		}
	}
}
MOTION
Frames: 8
Frame Time: 0.0454545
0.00 0.00 0.00 0 0 0 0 0 0 -21 0 0 0 0 0 0 0 0 0 0 0 0 0 0 21 0 0 0 0 0 0 0 0 0 0 0 0 0 0 0 0 0 0 0 0 0 0 -16 0 0 21 0 0 11 0 0 0 -8 0 0 0 0 0 0 0 0 0 0 0 0 0 0 0 0 0 0 0 0 8 0 0 0 0 0 0 0 0 0 0 0 0 0 0 0 0 0
0.00 0.00 0.00 170.5680 -86.9150 -162.9990 0.0000 0.0000 0.0000 -23.7912 -2.9497 0.4135 0.6812 5.2772 14.7008 0.8703 1.2759 -18.1297 0.3783 -3.9500 -10.9361 0.0000 0.0000 0.0000 10.3282 10.4322 -34.0307 -0.4508 -4.3076 11.9437 0.2920 -11.5133 -11.1274 -0.0903 1.9376 -5.3332 -1.1431 -0.8745 0.1663 3.2870 -1.1936 -0.3377 4.0268 -0.6041 -0.3463 -4.9118 -4.3358 -10.7513 6.2440 -5.8091 8.9472 2.2989 -2.6537 4.7694 0.0000 0.0000 0.0000 -95.1994 -22.4861 49.4910 37.3774 -46.4370 -16.5129 -0.0000 0.0000 -45.9719 17.7315 30.3517 9.1780 -7.1250 0.0000 -0.0000 -15.9865 60.8509 -6.2673 0.0000 0.0000 0.0000 72.3916 19.4023 41.6980 -47.7004 52.0248 -24.3493 0.0000 0.0000 2.7873 -10.5059 -16.3092 2.9811 7.1250 -0.0000 -0.0000 16.1715 -45.9023 -0.3698
0.00 0.00 0.00 198.6340 -89.4662 -190.6330 0.0000 0.0000 0.0000 -21.6583 -3.4664 4.1467 1.1050 6.6791 18.7682 1.0217 -2.1270 -18.5093 0.8285 -5.8071 -16.2257 0.0000 0.0000 0.0000 12.0622 12.7084 -33.7758 -1.2842 -7.1812 20.2532 0.2199 -8.9061 0.2367 -0.1081 -2.1198 5.8367 -1.2780 -2.3461 1.1826 4.7870 -3.1818 -0.4504 5.7187 -1.6085 -0.7838 -4.4494 -4.1062 -11.7174 4.8893 -5.3360 8.3772 1.8299 -2.4708 4.6747 -0.0000 -0.0000 0.0000 -92.6335 -8.8802 66.7091 52.3798 -53.9114 -28.0862 -0.0000 0.0000 -43.5180 18.8007 39.1958 12.1420 -7.1250 0.0000 -0.0000 -23.9542 69.3505 -14.2559 -0.0000 -0.0000 0.0000 75.1819 -0.7712 33.0823 -58.6227 55.9316 -33.1976 0.0000 -0.0000 -1.6702 -11.8060 -21.0735 4.2981 7.1250 -0.0000 -0.0000 16.8103 -50.6975 -2.4190
0.00 0.00 0.00 280.4920 -88.1498 -272.6680 0.0000 0.0000 0.0000 -17.3437 -4.8530 0.6098 3.3528 11.2454 33.1120 0.0461 -2.8154 -4.0185 2.5005 -9.8388 -28.4562 0.0000 0.0000 0.0000 17.3003 13.4361 -28.1438 -1.7613 -8.3500 23.7824 0.2482 -8.8235 -2.4628 -0.6628 -5.2069 14.4997 0.2203 -3.2158 0.5178 5.5495 -4.4028 0.0785 5.6126 -2.2648 0.2144 -3.2670 -2.9977 -11.9568 3.9952 -3.9307 8.4069 1.4708 -1.7940 4.6144 -0.0000 -0.0000 0.0000 -87.9495 0.2833 69.0572 72.9947 -58.8786 -45.3284 -0.0000 0.0000 -37.2071 15.5348 42.7372 10.6831 -7.1250 0.0000 -0.0000 -33.8172 71.2064 -21.8805 -0.0000 -0.0000 0.0000 78.4608 -16.4360 21.8770 -78.7915 59.5199 -50.3088 0.0000 -0.0000 -6.6098 -14.5286 -24.6361 6.1656 7.1250 -0.0000 -0.0000 15.8460 -54.6226 -3.8179
0.00 0.00 0.00 286.0370 -85.9374 -278.4580 0.0000 0.0000 0.0000 -12.7124 -4.5183 -5.5475 5.6573 14.0878 43.5902 0.2134 -0.6712 8.9966 0.8288 -5.8080 -16.2284 0.0000 0.0000 0.0000 21.6543 12.0578 -24.1171 -1.6727 -8.1481 23.1649 0.1754 -7.7918 -5.4470 -0.6874 -5.3007 14.7682 2.0844 -3.2508 0.6171 6.1011 -4.4571 -0.1365 5.1578 -2.3022 -0.1535 -3.0680 -2.6406 -11.8426 4.1209 -3.5258 9.0141 1.5082 -1.5800 4.7673 -0.0000 0.0000 0.0000 -86.1430 2.4767 66.0125 90.5946 -59.9987 -60.5149 -0.0000 0.0000 -31.3155 16.4769 40.0291 10.7710 -7.1250 0.0000 -0.0000 -27.9472 69.3244 -16.7388 -0.0000 0.0000 0.0000 79.4928 -21.2324 16.8758 -97.3963 59.7923 -66.4009 0.0000 -0.0000 -6.8509 -15.0772 -24.0405 6.2629 7.1250 -0.0000 -0.0000 14.9972 -54.1457 -3.4300
0.00 0.00 0.00 281.8310 -84.1702 -274.9550 0.0000 0.0000 0.0000 -9.3175 -3.9434 -10.7007 7.8716 16.0240 52.0989 0.2223 1.3243 8.5392 0.6080 -4.9908 -13.8822 0.0000 0.0000 0.0000 25.2352 10.7847 -20.2418 -1.5206 -7.7867 22.0681 0.0833 -6.7260 -7.1096 -0.6564 -5.1822 14.4289 3.4897 -2.9024 0.8350 6.3480 -4.0087 0.1388 4.6317 -2.0893 -0.1017 -2.8308 -2.5402 -11.7226 4.5371 -3.4974 9.2522 1.6016 -1.5334 4.8241 0.0000 -0.0000 0.0000 -85.4094 1.4942 61.8769 104.4579 -59.1952 -72.4871 -0.0000 0.0000 -23.1989 15.2805 36.4934 9.2289 -7.1250 0.0000 -0.0000 -24.4618 65.9023 -12.6746 0.0000 -0.0000 0.0000 79.5551 -21.4124 13.7264 -113.0788 57.8886 -79.8451 0.0000 -0.0000 -6.4780 -15.6534 -23.8905 6.4744 7.1250 -0.0000 -0.0000 14.3482 -54.1066 -3.2629
0.00 0.00 0.00 274.1560 -83.0379 -268.0710 0.0000 0.0000 0.0000 -6.2451 -3.8231 -21.3744 10.3384 17.5958 60.6135 -0.0004 0.8922 -1.2060 0.5205 -4.6240 -12.8392 0.0000 0.0000 0.0000 28.7738 8.9048 -12.6690 -1.0508 -6.5185 18.2966 -0.0675 -5.3633 -9.4591 -0.7077 -5.3768 14.9864 4.0664 -1.9874 1.0614 5.8789 -2.7447 0.1399 3.8180 -1.4478 -0.3477 -2.8177 -2.4893 -10.8860 4.7527 -3.5035 9.7562 1.6729 -1.5330 4.8449 -0.0000 0.0000 0.0000 -86.5314 -4.6565 50.5984 117.4169 -56.9599 -83.5014 -0.0000 0.0000 -9.5318 18.8216 24.7487 8.1209 -7.1250 0.0000 -0.0000 -11.5349 55.5741 -3.0226 -0.0000 0.0000 0.0000 76.2553 -11.0023 13.7268 -129.3467 53.2556 -93.3032 0.0000 -0.0000 -4.4172 -20.2952 -23.6675 8.4442 7.1250 -0.0000 -0.0000 9.5347 -54.7736 -2.3046
0.00 0.00 0.00 263.8470 -81.4825 -257.8150 0.0000 0.0000 0.0000 -3.2680 -5.3260 -30.7517 7.8379 15.9987 51.9766 0.1960 0.9722 -8.7756 0.6319 -5.0864 -14.1552 0.0000 0.0000 0.0000 31.8084 6.9986 -6.1406 -0.7238 -5.4362 15.1569 -0.2659 -3.3623 -11.5734 -0.5984 -4.9522 13.7724 5.7396 -0.7021 1.3590 5.1634 -0.9210 -0.4289 2.1264 -0.5470 -1.2058 -3.8238 -2.8992 -10.9876 3.4755 -3.7337 10.0297 1.4197 -1.7581 4.9485 -0.0000 0.0000 0.0000 -88.4446 -13.9290 41.1848 100.8129 -59.5536 -69.3502 -0.0000 -0.0000 0.9469 27.7345 21.0259 10.6830 -7.1250 0.0000 -0.0000 -0.9387 53.4513 -0.1951 -0.0000 0.0000 0.0000 70.0585 8.1341 22.7514 -115.8561 57.3167 -82.1903 0.0000 -0.0000 -0.0715 -27.1482 -19.3508 9.6432 7.1250 -0.0000 -0.0000 1.1685 -51.5139 -0.1875
